<?xml version="1.0" encoding="UTF-8" standalone="no"?>
<!-- Created with Inkscape (http://www.inkscape.org/) -->

<svg
   xmlns:dc="http://purl.org/dc/elements/1.1/"
   xmlns:cc="http://creativecommons.org/ns#"
   xmlns:rdf="http://www.w3.org/1999/02/22-rdf-syntax-ns#"
   xmlns:svg="http://www.w3.org/2000/svg"
   xmlns="http://www.w3.org/2000/svg"
   xmlns:xlink="http://www.w3.org/1999/xlink"
   xmlns:sodipodi="http://sodipodi.sourceforge.net/DTD/sodipodi-0.dtd"
   xmlns:inkscape="http://www.inkscape.org/namespaces/inkscape"
   width="20mm"
   height="20mm"
   viewBox="0 0 20 20"
   version="1.1"
   id="svg8"
   inkscape:version="0.92.4 (unknown)"
   sodipodi:docname="stepper1.svg">
  <defs
     id="defs2">
    <linearGradient
       inkscape:collect="always"
       id="linearGradient4567">
      <stop
         style="stop-color:#879799;stop-opacity:1;"
         offset="0"
         id="stop4563" />
      <stop
         style="stop-color:#ffffff;stop-opacity:1"
         offset="1"
         id="stop4565" />
    </linearGradient>
    <linearGradient
       inkscape:collect="always"
       xlink:href="#linearGradient4567"
       id="linearGradient4569"
       x1="10"
       y1="286"
       x2="10"
       y2="284"
       gradientUnits="userSpaceOnUse"
       gradientTransform="rotate(45,11.163923,287.47126)" />
  </defs>
  <sodipodi:namedview
     id="base"
     pagecolor="#ffffff"
     bordercolor="#666666"
     borderopacity="1.0"
     inkscape:pageopacity="0.0"
     inkscape:pageshadow="2"
     inkscape:zoom="6.1271874"
     inkscape:cx="43.840774"
     inkscape:cy="42.926163"
     inkscape:document-units="mm"
     inkscape:current-layer="layer1"
     showgrid="true"
     inkscape:window-width="1920"
     inkscape:window-height="990"
     inkscape:window-x="1920"
     inkscape:window-y="27"
     inkscape:window-maximized="1"
     inkscape:snap-bbox="true"
     inkscape:object-paths="true"
     inkscape:bbox-paths="true"
     inkscape:bbox-nodes="true"
     inkscape:snap-bbox-edge-midpoints="true"
     inkscape:snap-bbox-midpoints="true">
    <inkscape:grid
       type="xygrid"
       id="grid815"
       units="mm"
       spacingx="0.99999997"
       spacingy="0.99999997" />
  </sodipodi:namedview>
  <metadata
     id="metadata5">
    <rdf:RDF>
      <cc:Work
         rdf:about="">
        <dc:format>image/svg+xml</dc:format>
        <dc:type
           rdf:resource="http://purl.org/dc/dcmitype/StillImage" />
        <dc:title></dc:title>
      </cc:Work>
    </rdf:RDF>
  </metadata>
  <g
     inkscape:label="Layer 1"
     inkscape:groupmode="layer"
     id="layer1"
     transform="translate(0,-277)">
    <rect
       style="opacity:1;fill:#879799;fill-opacity:1;stroke:none;stroke-width:0.10000002;stroke-linecap:round;stroke-linejoin:round;stroke-miterlimit:4;stroke-dasharray:none;stroke-opacity:1"
       id="rect4742"
       width="20"
       height="20"
       x="0"
       y="277"
       rx="2.0000005"
       ry="2.0000012" />
    <circle
       style="opacity:1;fill:#ffffff;fill-opacity:1;stroke:none;stroke-width:0.1;stroke-linecap:round;stroke-linejoin:round;stroke-miterlimit:4;stroke-dasharray:none;stroke-opacity:1"
       id="path4740"
       cx="9.999999"
       cy="287"
       r="8.999999" />
    <path
       id="circle4551"
       style="opacity:1;fill:#879799;fill-opacity:1;stroke:none;stroke-width:2;stroke-linecap:round;stroke-linejoin:round;stroke-miterlimit:4;stroke-dasharray:none;stroke-opacity:1"
       sodipodi:type="arc"
       sodipodi:cx="2.4999983"
       sodipodi:cy="287"
       sodipodi:rx="2.5000014"
       sodipodi:ry="2.5000014"
       sodipodi:start="3.9962976"
       sodipodi:end="2.1649704"
       sodipodi:open="true"
       d="m 0.85889459,285.11406 a 2.5000014,2.5000014 0 0 1 3.37760041,0.0874 2.5000014,2.5000014 0 0 1 0.2058354,3.37246 2.5000014,2.5000014 0 0 1 -3.3418943,0.49757" />
    <path
       style="opacity:1;fill:#ff0000;fill-opacity:1;stroke:#000000;stroke-width:0.1;stroke-linecap:round;stroke-linejoin:round;stroke-miterlimit:4;stroke-dasharray:none;stroke-opacity:1"
       id="circle4545"
       sodipodi:type="arc"
       sodipodi:cx="10"
       sodipodi:cy="279.5"
       sodipodi:rx="2.5000014"
       sodipodi:ry="2.5000014"
       sodipodi:start="5.6584233"
       sodipodi:end="3.701952"
       sodipodi:open="true"
       d="m 12.027757,278.03774 a 2.5000014,2.5000014 0 0 1 -0.317595,3.28581 2.5000014,2.5000014 0 0 1 -3.2994181,0.10629 2.5000014,2.5000014 0 0 1 -0.5284056,-3.25857" />
    <path
       id="circle4547"
       style="opacity:1;fill:#879799;fill-opacity:1;stroke:none;stroke-width:0.1;stroke-linecap:round;stroke-linejoin:round;stroke-miterlimit:4;stroke-dasharray:none;stroke-opacity:1"
       sodipodi:type="arc"
       sodipodi:cx="17.500002"
       sodipodi:cy="287"
       sodipodi:rx="2.5000014"
       sodipodi:ry="2.5000014"
       sodipodi:start="0.98549815"
       sodipodi:end="5.3663864"
       sodipodi:open="true"
       d="m 18.881123,289.08387 a 2.5000014,2.5000014 0 0 1 -3.299978,-0.48137 2.5000014,2.5000014 0 0 1 0.11453,-3.33294 2.5000014,2.5000014 0 0 1 3.325237,-0.25371" />
    <path
       style="opacity:1;fill:#879799;fill-opacity:1;stroke:none;stroke-width:2;stroke-linecap:round;stroke-linejoin:round;stroke-miterlimit:4;stroke-dasharray:none;stroke-opacity:1"
       id="circle4549"
       sodipodi:type="arc"
       sodipodi:cx="10"
       sodipodi:cy="294.5"
       sodipodi:rx="2.5000014"
       sodipodi:ry="2.5000014"
       sodipodi:start="2.5333311"
       sodipodi:end="0.65664097"
       sodipodi:open="true"
       d="m 7.9483921,295.92861 a 2.5000014,2.5000014 0 0 1 0.4215938,-3.32415 2.5000014,2.5000014 0 0 1 3.3497901,0.0811 2.5000014,2.5000014 0 0 1 0.260343,3.34064" />
    <circle
       style="opacity:1;fill:none;fill-opacity:1;stroke:#879799;stroke-width:2;stroke-linecap:round;stroke-linejoin:round;stroke-miterlimit:4;stroke-dasharray:none;stroke-opacity:1"
       id="path4539"
       cx="9.999999"
       cy="287"
       r="9" />
    <g
       id="g4604"
       inkscape:transform-center-x="0.030413789"
       inkscape:transform-center-y="-0.69341819"
       transform="rotate(-45.101075,10.037421,286.99491)">
      <ellipse
         transform="rotate(45)"
         ry="2.2500002"
         rx="2"
         style="opacity:1;fill:#5694ca;fill-opacity:1;stroke:none;stroke-width:2;stroke-linecap:round;stroke-linejoin:round;stroke-miterlimit:4;stroke-dasharray:none;stroke-opacity:1"
         id="circle4555"
         cx="210.00304"
         cy="193.65753" />
      <path
         transform="rotate(45,9.9568181,286.97126)"
         inkscape:transform-center-y="0.30131057"
         inkscape:transform-center-x="0.044907058"
         d="m 10,284.18 0.391579,-0.15433 0.338291,0.25042 0.41818,-0.0477 0.26195,0.32945 0.416284,0.0621 0.167757,0.38602 0.386018,0.16776 0.06213,0.41628 0.329447,0.26195 -0.04773,0.41818 0.250424,0.33829 -0.154335,0.39158 0.154335,0.39158 -0.250424,0.33829 0.04773,0.41818 -0.329447,0.26195 -0.06213,0.41628 -0.386018,0.16776 -0.167757,0.38602 -0.416284,0.0621 -0.26195,0.32945 -0.418181,-0.0477 -0.338291,0.25042 L 9.9999999,289.82 9.6084214,289.97433 9.2701304,289.72391 8.85195,289.77164 8.5900003,289.44219 8.1737162,289.38006 8.0059594,288.99404 7.6199407,288.82628 7.557809,288.41 7.2283622,288.14805 7.2760899,287.72987 7.0256663,287.39158 7.1800008,287 l -0.1543344,-0.39158 0.2504235,-0.33829 -0.047728,-0.41818 0.3294468,-0.26195 0.062132,-0.41628 0.3860187,-0.16776 0.1677569,-0.38602 0.4162841,-0.0621 0.2619497,-0.32945 0.4181804,0.0477 0.338291,-0.25042 z"
         inkscape:randomized="0"
         inkscape:rounded="0"
         inkscape:flatsided="false"
         sodipodi:arg2="-1.4398966"
         sodipodi:arg1="-1.5707963"
         sodipodi:r2="2.999999"
         sodipodi:r1="2.8199992"
         sodipodi:cy="287"
         sodipodi:cx="10"
         sodipodi:sides="24"
         id="path4559"
         style="opacity:1;fill:#879799;fill-opacity:1;stroke:none;stroke-width:2.20000005;stroke-linecap:round;stroke-linejoin:round;stroke-miterlimit:4;stroke-dasharray:none;stroke-opacity:1"
         sodipodi:type="star" />
      <circle
         transform="rotate(45)"
         r="0.99999994"
         cy="195.90753"
         cx="210.00304"
         id="circle4557"
         style="opacity:1;fill:#ffffff;fill-opacity:1;stroke:none;stroke-width:1.99999988;stroke-linecap:round;stroke-linejoin:round;stroke-miterlimit:4;stroke-dasharray:none;stroke-opacity:1" />
      <path
         inkscape:connector-curvature="0"
         id="path4561"
         d="m 10.654373,284.92056 0.707107,-0.70711 -0.707107,-0.7071 2.12132,0.7071 0.707107,2.12132 -0.707106,-0.7071 -0.707107,0.7071"
         style="fill:url(#linearGradient4569);fill-opacity:1;stroke:#000000;stroke-width:0.1;stroke-linecap:butt;stroke-linejoin:miter;stroke-miterlimit:4;stroke-dasharray:none;stroke-opacity:1" />
    </g>
  </g>
</svg>
